<?xml version="1.0" encoding="UTF-8" standalone="no"?>
<svg width="18px" height="18px" viewBox="0 0 18 18" version="1.1" xmlns="http://www.w3.org/2000/svg" xmlns:xlink="http://www.w3.org/1999/xlink">
    <!-- Generator: sketchtool 41.2 (35397) - http://www.bohemiancoding.com/sketch -->
    <title>74DD72B1-4763-4927-9A12-E754BABEDC03</title>
    <desc>Created with sketchtool.</desc>
    <defs></defs>
    <g id="Page-1" stroke="none" stroke-width="1" fill="none" fill-rule="evenodd">
        <g id="ejercicio-2.1" transform="translate(-313.000000, -417.000000)" fill="#FFFFFF">
            <g id="Group-3" transform="translate(285.000000, 148.000000)">
                <g id="Group-2" transform="translate(0.000000, 252.000000)">
                    <g id="Group-8" transform="translate(28.000000, 17.000000)">
                        <path d="M5.52415385,0 L10.0624615,0 L10.0624615,0.081 C10.0624615,0.607263158 9.15461538,0.688736842 8.52323077,0.81 C8.32615385,0.81 7.89184615,0.850263158 7.77369231,0.931263158 C8.91784615,1.539 9.11538462,2.55126316 9.11538462,4.00926316 C9.11538462,5.71026316 8.484,6.60126316 7.77369231,7.20852632 C7.37907692,7.61352632 7.02415385,7.89678947 7.02415385,8.30178947 C7.02415385,8.70678947 7.49723077,9.11178947 8.01,9.59778947 C8.87815385,10.3675263 10.0624615,11.4200526 10.0624615,13.2020526 C10.0624615,15.0650526 9.27323077,16.4013158 7.77369231,17.1307895 C6.58984615,17.7380526 5.32707692,17.8190526 4.81384615,17.8190526 C4.73538462,17.8190526 4.69569231,17.7783158 4.65646154,17.7783158 C4.65646154,17.7783158 4.61676923,17.8190526 4.57753846,17.8190526 C3.82753846,17.8190526 0,17.6163158 0,14.0523158 C0,10.5697895 4.14323077,10.2865263 5.406,10.2865263 L5.44569231,10.2865263 C4.73538462,9.27378947 4.85353846,8.26152632 4.85353846,8.26152632 L4.57753846,8.26152632 C4.10353846,8.26152632 3.19661538,8.18052632 2.40738462,7.65426316 C1.42061538,7.04652632 0.947076923,5.95326316 0.947076923,4.41426316 C0.947076923,0.162 5.48492308,0 5.52415385,0 L5.52415385,0 Z M5.36676923,11.2177895 L5.05061538,11.2177895 C4.18246154,11.2585263 3.39323077,11.6227895 2.80153846,12.1490526 C2.24953846,12.6757895 1.93338462,13.3640526 1.97307692,14.0523158 C2.09123077,15.4700526 3.55153846,16.2800526 5.36676923,16.1583158 C7.14184615,16.0370526 8.36538462,14.9840526 8.24723077,13.5663158 C8.16830769,12.1897895 7.06338462,11.2177895 5.36676923,11.2177895 L5.36676923,11.2177895 Z M4.65646154,1.25526316 C4.53784615,1.25526316 4.41969231,1.25526316 4.26138462,1.296 C3.74861538,1.45752632 3.354,1.90326316 3.11769231,2.55126316 C2.92015385,3.19926316 2.88046154,3.88752632 3.078,4.69752632 C3.43292308,6.07452632 4.41969231,7.08678947 5.406,7.08678947 C5.52415385,7.08678947 5.64276923,7.08678947 5.76092308,7.04652632 C6.86584615,6.72252632 7.53692308,5.06226316 7.06338462,3.44226316 C6.58984615,1.74126316 5.83984615,1.25526316 4.65646154,1.25526316 L4.65646154,1.25526316 Z M17.6778462,6.96552632 L17.6778462,8.86878947 L14.7184615,8.86878947 L14.7184615,11.9065263 L12.864,11.9065263 L12.864,8.86878947 L9.90461538,8.86878947 L9.90461538,6.96552632 L12.864,6.96552632 L12.864,3.92826316 L14.7184615,3.92826316 L14.7184615,6.96552632 L17.6778462,6.96552632 L17.6778462,6.96552632 Z" id="Imported-Layers"></path>
                    </g>
                </g>
            </g>
        </g>
    </g>
</svg>