<?xml version="1.0" encoding="UTF-8" standalone="no"?>
<svg width="24px" height="19px" viewBox="0 0 24 19" version="1.1" xmlns="http://www.w3.org/2000/svg" xmlns:xlink="http://www.w3.org/1999/xlink">
    <!-- Generator: sketchtool 41.2 (35397) - http://www.bohemiancoding.com/sketch -->
    <title>A7A6A769-2B2E-48B9-B32A-C12EF667BE9A</title>
    <desc>Created with sketchtool.</desc>
    <defs></defs>
    <g id="Page-1" stroke="none" stroke-width="1" fill="none" fill-rule="evenodd">
        <g id="ejercicio-2.1" transform="translate(-312.000000, -165.000000)" fill="#FFFFFF">
            <g id="Group-3" transform="translate(285.000000, 148.000000)">
                <g id="Group-4">
                    <g id="Group-5" transform="translate(27.000000, 17.000000)">
                        <g id="envelope">
                            <g id="Capa_1">
                                <g id="Group">
                                    <path d="M2.30184375,5.88052357 C2.60521875,6.09584119 3.51970312,6.73533499 5.04534375,7.79867494 C6.57103125,8.86201489 7.7398125,9.68075931 8.55173438,10.2549553 C8.6409375,10.3178958 8.83045313,10.4547146 9.120375,10.6656005 C9.41034375,10.8766278 9.65128125,11.0471563 9.843,11.1772333 C10.0348594,11.307263 10.2667969,11.453134 10.5390469,11.6146104 C10.8112031,11.7759454 11.06775,11.8973002 11.3086406,11.9776377 C11.5495781,12.0586352 11.7726094,12.0987568 11.9777813,12.0987568 L11.9912344,12.0987568 L12.0047344,12.0987568 C12.2099063,12.0987568 12.4330312,12.0585881 12.6739687,11.9776377 C12.9147656,11.8973002 13.1715469,11.775804 13.4434687,11.6146104 C13.7155312,11.4529454 13.9474688,11.3072159 14.1393281,11.1772333 C14.3311875,11.0471563 14.5719375,10.8766278 14.862,10.6656005 C15.151875,10.4545261 15.341625,10.3178958 15.4308281,10.2549553 C16.2515156,9.68075931 18.3394687,8.22247395 21.6940313,5.88024069 C22.3453125,5.42277916 22.8894375,4.87078908 23.3265469,4.22464764 C23.7639844,3.57878908 23.9824687,2.90124814 23.9824687,2.19240199 C23.9824687,1.60005459 23.7704531,1.09299504 23.3466094,0.671270471 C22.9228125,0.249451613 22.420875,0.0386600496 21.841125,0.0386600496 L2.14120313,0.0386600496 C1.45425,0.0386600496 0.92559375,0.271940447 0.555328125,0.738501241 C0.185109375,1.20515633 0,1.78845161 0,2.48833995 C0,3.05367246 0.2454375,3.6662928 0.736078125,4.32582382 C1.22667188,4.98540199 1.74876563,5.50368238 2.30184375,5.88052357 Z" id="Shape"></path>
                                    <path d="M22.644,7.32065757 C19.717875,9.3126402 17.496,10.8607395 15.9794531,11.9646253 C15.4709063,12.3413722 15.0583594,12.6354715 14.7415313,12.8462159 C14.4247031,13.0571017 14.0033438,13.2724665 13.4768437,13.4922159 C12.9505313,13.7122953 12.4600313,13.822005 12.0049219,13.822005 L11.9912812,13.822005 L11.9778281,13.822005 C11.5228125,13.822005 11.0320312,13.7122953 10.5057187,13.4922159 C9.97940625,13.2724665 9.55776562,13.0571017 9.24103125,12.8462159 C8.92439062,12.6354715 8.51170313,12.3413722 8.00320312,11.9646253 C6.79865625,11.0762928 4.5815625,9.52809926 1.35182812,7.32065757 C0.843140625,6.97988337 0.392578125,6.58927543 0,6.14963524 L0,16.8370174 C0,17.4296476 0.209578125,17.9364243 0.62896875,18.358196 C1.04826562,18.7801092 1.55245312,18.990995 2.14134375,18.990995 L21.8413125,18.990995 C22.4300625,18.990995 22.9342031,18.7801092 23.3535469,18.358196 C23.7730313,17.9362829 23.9825156,17.4296948 23.9825156,16.8370174 L23.9825156,6.14963524 C23.5987969,6.58017618 23.1528281,6.97078412 22.644,7.32065757 Z" id="Shape"></path>
                                </g>
                            </g>
                        </g>
                    </g>
                </g>
            </g>
        </g>
    </g>
</svg>