<?xml version="1.0" encoding="UTF-8" standalone="no"?>
<svg width="20px" height="17px" viewBox="0 0 20 17" version="1.1" xmlns="http://www.w3.org/2000/svg" xmlns:xlink="http://www.w3.org/1999/xlink">
    <!-- Generator: sketchtool 41.2 (35397) - http://www.bohemiancoding.com/sketch -->
    <title>FCBBE775-073A-4034-B529-99C37E9129A0</title>
    <desc>Created with sketchtool.</desc>
    <defs></defs>
    <g id="Page-1" stroke="none" stroke-width="1" fill="none" fill-rule="evenodd">
        <g id="ejercicio-2.1" transform="translate(-317.000000, -349.000000)" fill="#FFFFFF">
            <g id="Group-3" transform="translate(285.000000, 148.000000)">
                <g id="Group-7" transform="translate(32.000000, 201.000000)">
                    <path d="M17.4921569,4.06583333 L17.4921569,4.59040476 C17.4921569,10.0546905 13.4682353,16.3058333 6.14117647,16.3058333 C3.85411765,16.3058333 1.77882353,15.650119 0,14.4698333 C0.296470588,14.5135476 0.635294118,14.5135476 0.974117647,14.5135476 C2.83764706,14.5135476 4.57411765,13.8578333 5.92941176,12.7649762 C4.19294118,12.7212619 2.71058824,11.5409762 2.20235294,9.87942857 C2.41411765,9.9672619 2.66823529,9.9672619 2.92235294,9.9672619 C3.30352941,9.9672619 3.64235294,9.92354762 3.98117647,9.83571429 C2.16,9.44269048 0.804705882,7.78114286 0.804705882,5.77069048 L0.804705882,5.72697619 C1.31294118,6.03257143 1.94823529,6.20783333 2.58352941,6.25154762 C1.52470588,5.50840476 0.804705882,4.24028571 0.804705882,2.79771429 C0.804705882,2.05457143 1.01647059,1.35514286 1.35529412,0.743142857 C3.34588235,3.23485714 6.26823529,4.896 9.61411765,5.02754762 C9.52941176,4.76485714 9.48705882,4.41514286 9.48705882,4.10954762 C9.48705882,1.836 11.2658824,0 13.5105882,0 C14.6541176,0 15.6709804,0.480857143 16.3909804,1.26811905 C17.3223529,1.09285714 18.1698039,0.743142857 18.9317647,0.306 C18.6356863,1.26811905 18,2.05457143 17.1956863,2.57914286 C18,2.44840476 18.7623529,2.22942857 19.4827451,1.92342857 C18.9317647,2.754 18.2541176,3.45342857 17.4921569,4.06583333" id="Imported-Layers"></path>
                </g>
            </g>
        </g>
    </g>
</svg>